<svg id="visual" viewBox="0 0 1920 1080" width="1920" height="1080" xmlns="http://www.w3.org/2000/svg" xmlns:xlink="http://www.w3.org/1999/xlink" version="1.1"><rect width="1920" height="1080" fill="#FFFBF3"></rect><g><g transform="translate(660 827)"><path d="M120.8 -40.8C138.9 16.7 123.9 83.3 80.4 116.2C36.9 149.1 -35.1 148.3 -87.1 112.3C-139.2 76.3 -171.2 5.1 -153.4 -51.9C-135.5 -108.9 -67.8 -151.7 -8.2 -149.1C51.3 -146.4 102.6 -98.2 120.8 -40.8Z" fill="#FEF5E7"></path></g><g transform="translate(1310 548)"><path d="M120.4 -41.6C133.5 1.2 106 54.6 64.3 83.8C22.6 113 -33.3 117.9 -70.4 92.1C-107.4 66.3 -125.5 9.8 -110.7 -35.4C-95.8 -80.6 -47.9 -114.6 2.9 -115.5C53.7 -116.5 107.3 -84.4 120.4 -41.6Z" fill="#FEF5E7"></path></g><g transform="translate(1826 189)"><path d="M115.6 -33.9C133.2 16.6 119.4 81 80.8 108.4C42.2 135.7 -21.2 126.1 -65.2 93.3C-109.1 60.5 -133.6 4.6 -119.5 -41.2C-105.4 -86.9 -52.7 -122.4 -1.9 -121.8C49 -121.2 98 -84.5 115.6 -33.9Z" fill="#FEF5E7"></path></g></g></svg>